<?xml version="1.0" encoding="UTF-8"?>
<!DOCTYPE svg PUBLIC "-//W3C//DTD SVG 1.1//EN" "http://www.w3.org/Graphics/SVG/1.1/DTD/svg11.dtd">
<!-- Creator: CorelDRAW 2019 (64-Bit) -->
<svg xmlns="http://www.w3.org/2000/svg" xml:space="preserve" width="2077px" height="1080px" version="1.1" style="shape-rendering:geometricPrecision; text-rendering:geometricPrecision; image-rendering:optimizeQuality; fill-rule:evenodd; clip-rule:evenodd"
viewBox="0 0 2077 1080.24"
 xmlns:xlink="http://www.w3.org/1999/xlink"
 xmlns:xodm="http://www.corel.com/coreldraw/odm/2003">
 <defs>
  <style type="text/css">
   <![CDATA[
    .fil0 {fill:#165680;fill-rule:nonzero}
    .fil1 {fill:url(#id0)}
   ]]>
  </style>
  <linearGradient id="id0" gradientUnits="userSpaceOnUse" x1="661.61" y1="311.41" x2="1299.17" y2="252.17">
   <stop offset="0" style="stop-opacity:1; stop-color:#00418A"/>
   <stop offset="1" style="stop-opacity:1; stop-color:#FFCC00"/>
  </linearGradient>
 </defs>
 <g id="Layer_x0020_1">
  <metadata id="CorelCorpID_0Corel-Layer"/>
  <path class="fil0" d="M51.52 873.87c0,6.22 1.13,12.42 2.28,18.11 9.61,34.51 38.47,58.31 74.7,58.31 52.08,0 83.22,-42.47 83.22,-105.3 0,-54.91 -28.32,-101.9 -81.51,-101.9 -33.99,0 -65.69,23.22 -75.88,61.16 -1.12,5.67 -2.81,12.42 -2.81,20.37l0 49.25zm-49.26 -292.07l0 0 49.26 0 0 172.07 1.13 0c17.55,-30.56 49.25,-50.37 93.42,-50.37 67.95,0 116.04,56.58 115.45,139.84 0,97.88 -61.67,146.57 -122.84,146.57 -39.63,0 -71.34,-15.29 -91.69,-51.51l-1.72 0 -2.22 45.29 -43.05 0c1.15,-18.7 2.26,-46.46 2.26,-70.76l0 -331.13z"/>
  <path class="fil0" d="M461.94 843.84c-54.38,-1.14 -116.06,8.52 -116.06,61.7 0,32.27 21.5,47.6 46.96,47.6 35.68,0 58.31,-22.69 66.24,-45.88 1.7,-5.13 2.86,-10.77 2.86,-15.84l0 -47.58zm48.11 74.17l0 0c0,23.8 1.13,46.98 4.52,65.68l-45.28 0 -3.98 -34.55 -1.68 0c-15.31,21.55 -44.76,40.77 -83.78,40.77 -55.5,0 -83.76,-39.04 -83.76,-78.65 0,-66.27 58.85,-102.51 164.69,-101.9l0 -5.69c0,-22.63 -6.21,-63.39 -62.24,-63.39 -25.51,0 -52.09,7.89 -71.35,20.39l-11.34 -32.84c22.65,-14.7 55.53,-24.33 90.02,-24.33 83.8,0 104.18,57.17 104.18,112.05l0 102.46z"/>
  <path class="fil0" d="M586.49 783.83c0,-28.29 -0.6,-51.45 -2.28,-74.13l44.12 0 2.86 45.28 1.13 0c13.6,-26 45.29,-51.51 90.59,-51.51 37.88,0 96.77,22.66 96.77,116.6l0 163.59 -49.83 0 0 -157.92c0,-44.17 -16.37,-80.97 -63.39,-80.97 -32.82,0 -58.32,23.24 -66.81,50.98 -2.26,6.19 -3.4,14.7 -3.4,23.24l0 164.67 -49.76 0 0 -199.83z"/>
  <path class="fil0" d="M941.96 835.37l1.13 0c6.8,-9.63 16.4,-21.52 24.36,-31.14l80.37 -94.53 60 0 -105.86 112.66 120.55 161.3 -60.53 0 -94.53 -131.3 -25.49 28.29 0 103.01 -49.27 0 0 -401.86 49.27 0 0 253.57z"/>
  <path class="fil0" d="M1420.4 928.52c-39.95,0 -72.35,-43.05 -72.35,-96.08 0,-53.07 32.4,-96.1 72.35,-96.1 39.91,0 72.28,43.03 72.28,96.1 0,53.03 -32.37,96.08 -72.28,96.08zm112.55 -209.12l0 0c-1.85,-2.2 -3.7,-4.43 -5.66,-6.44 -3.21,-3.35 -6.8,-6.47 -10.62,-9.43 -20.6,-16.85 -45.52,-26.76 -72.37,-26.76 -28.98,0 -55.67,11.64 -77.15,31 -0.63,0.39 -1.17,0.84 -1.8,1.17 -0.77,0.42 -1.86,0.95 -3.13,0.62 -3.53,-0.92 -7.29,-4.69 -7.32,-10.07l0 -112.03c0,-7.03 -5.77,-12.72 -12.85,-12.72l-54.52 0c-7.11,0 -12.84,5.69 -12.84,12.72l0 3.88c0,0.17 -0.05,0.28 -0.05,0.42l0 13 0.1 361.15c0,7.17 5.8,12.98 12.95,12.98l49.35 0c3.15,0 6,-1.17 8.24,-3.07 0.09,-0.06 0.19,-0.06 0.23,-0.11 0.09,-0.06 0.1,-0.14 0.15,-0.2 1.06,-0.92 1.89,-2.03 2.59,-3.23l0.03 0c0.85,-1.59 1.41,-3.27 1.6,-5.14 0.99,-7.98 6.42,-12.39 9.79,-11.24 1.16,0.36 2.26,0.92 3.39,1.73 1.16,0.72 2.29,1.48 3.4,2.2 3.35,2.46 18.06,12.53 29.46,17.6 5.74,2.55 24.05,8.77 45.3,8.77 21.26,0 36.36,-4.71 39.92,-5.67 3.58,-0.95 7.1,-2.14 10.48,-3.71 16.64,-7.14 30.02,-16.99 40.19,-29.43 10.06,-12.22 18.4,-26.7 25.14,-43.33 10.04,-21.88 15.76,-46.99 15.76,-73.72 0,-43.67 -15.29,-82.97 -39.76,-110.94z"/>
  <path class="fil0" d="M1714.62 708.91c-0.06,-0.72 -0.13,-1.45 -0.19,-2.14l0 -9.57c0,-7.2 -5.81,-13.03 -13,-13.03l-54.92 0c-7.21,0 -13.04,5.83 -13.04,13.03l0 295.97c-0.28,7.54 -9.45,17.86 -20.05,20.43 -4.88,1.51 -9.76,2.2 -14.7,1.98 -4.91,-0.17 -8.29,1.81 -10.2,5.97 -0.74,1.84 -1.29,4.32 -1.72,7.36 -0.33,3.02 0.09,34.74 0.32,37.37 0.2,2.65 0.66,4.88 1.4,6.77 2.27,3.41 6.25,5.67 11.88,6.81 1.89,0.78 38.38,0.87 62.91,-5.07 9.64,-2.32 17.37,-6.98 23.82,-11.86 6.37,-4.94 12.06,-11.16 17,-18.75 5.68,-9.04 8.77,-20.46 9.36,-34.24 0.17,-4.15 0.94,-15.01 0.94,-16.29l0 -268.92c0.06,-1.45 0.11,-2.89 0.19,-4.46 0.18,-3.77 0.18,-7.56 0,-11.36z"/>
  <path class="fil0" d="M1924.7 928.52c-39.95,0 -72.33,-43.05 -72.33,-96.08 0,-53.07 32.38,-96.1 72.33,-96.1 39.93,0 72.29,43.03 72.29,96.1 0,53.03 -32.36,96.08 -72.29,96.08zm112.54 -209.12l0 0c-1.83,-2.2 -3.67,-4.43 -5.67,-6.44 -3.2,-3.35 -6.8,-6.47 -10.59,-9.43 -20.61,-16.85 -45.53,-26.76 -72.4,-26.76 -28.96,0 -55.62,11.64 -77.1,31 -0.66,0.39 -1.2,0.84 -1.86,1.17 -0.75,0.42 -1.8,0.95 -3.08,0.62 -3.53,-0.92 -7.31,-4.69 -7.37,-10.07l0 -112.03c0,-7.03 -5.74,-12.72 -12.81,-12.72l-54.51 0c-7.12,0 -12.87,5.69 -12.87,12.72l0 3.88c0,0.17 -0.03,0.28 -0.03,0.42l0 13 0.06 361.15c0,7.17 5.82,12.98 12.99,12.98l49.3 0c3.18,0 6.06,-1.17 8.3,-3.07 0.07,-0.06 0.13,-0.06 0.2,-0.11 0.08,-0.06 0.11,-0.14 0.18,-0.2 1.01,-0.92 1.88,-2.03 2.58,-3.23l0.03 -0.06c0.84,-1.53 1.41,-3.21 1.59,-5.08 0.99,-7.98 6.39,-12.39 9.78,-11.24 1.16,0.36 2.3,0.92 3.42,1.73 1.11,0.72 2.24,1.48 3.4,2.2 3.32,2.46 18.05,12.53 29.44,17.6 5.74,2.55 24.02,8.77 45.31,8.77 21.23,0 36.31,-4.71 39.91,-5.67 3.59,-0.95 7.09,-2.14 10.48,-3.71 16.59,-7.14 30.02,-16.99 40.21,-29.43 10.05,-12.22 18.38,-26.7 25.12,-43.33 10.03,-21.88 15.75,-46.99 15.75,-73.72 0,-43.67 -15.31,-82.97 -39.76,-110.94z"/>
  <path class="fil0" d="M1672.99 578c-7.81,0.11 -14.69,1.88 -20.6,5.33 -5.79,3.54 -10.3,8.29 -13.5,14.09 -3.32,5.92 -4.96,12.42 -4.96,19.64 0,6.98 1.64,13.29 4.73,19.09 3.06,5.78 7.46,10.4 13.01,13.95 5.69,3.43 12.32,5.22 19.91,5.33 8.52,-0.11 15.75,-1.9 21.67,-5.33 5.91,-3.55 10.4,-8.17 13.49,-13.95 3.08,-5.8 4.6,-12.11 4.6,-19.09 0,-7.22 -1.63,-13.72 -4.73,-19.64 -3.07,-5.8 -7.56,-10.55 -13.27,-14.09 -5.66,-3.45 -12.53,-5.22 -20.35,-5.33z"/>
  <path class="fil1" d="M1257.98 0c-68.11,116.11 -266.35,203.76 -582.01,265.7 2.51,-23.92 5.03,-47.85 7.54,-71.79 221.43,-21.44 407.42,-94 574.47,-193.91zm-26.98 115.15c-68.11,116.12 -266.36,203.75 -582.01,265.7 2.51,-23.93 5.01,-47.86 7.53,-71.79 221.43,-21.45 407.43,-94.01 574.48,-193.91zm-25.2 100.75c-68.11,116.11 -266.34,203.76 -582.01,265.7 2.52,-23.93 5.03,-47.87 7.55,-71.79 221.42,-21.44 407.41,-94 574.46,-193.91z"/>
 </g>
</svg>
